<?xml version="1.0" standalone="no"?>
<!DOCTYPE svg PUBLIC "-//W3C//DTD SVG 20010904//EN"
 "http://www.w3.org/TR/2001/REC-SVG-20010904/DTD/svg10.dtd">
<svg version="1.0" xmlns="http://www.w3.org/2000/svg"
 width="1093.000000pt" height="1093.000000pt" viewBox="0 0 1093.000000 1093.000000"
 preserveAspectRatio="xMidYMid meet">
<metadata>
Created by potrace 1.14, written by Peter Selinger 2001-2017
</metadata>
<g transform="translate(0.000000,1093.000000) scale(0.100000,-0.100000)"
fill="#000000" stroke="none">
<path d="M5125 10919 c-1259 -63 -1980 -214 -2650 -554 -383 -194 -646 -386
-965 -705 -214 -213 -359 -387 -485 -580 -315 -481 -530 -1079 -586 -1624 -16
-164 -7 -444 20 -557 26 -113 69 -222 114 -291 l37 -55 -19 -55 c-11 -31 -37
-127 -59 -214 -137 -536 -200 -1130 -189 -1775 6 -383 31 -590 113 -927 197
-809 649 -1587 1279 -2200 809 -787 1825 -1265 2909 -1367 213 -20 670 -20
887 0 629 59 1260 233 1866 514 250 116 436 225 621 364 571 428 1012 1045
1326 1853 l47 122 52 -20 c74 -29 214 -35 309 -14 253 56 505 295 662 627 146
310 200 616 145 825 -54 207 -204 429 -365 540 -61 42 -61 43 -39 154 8 41 22
185 30 320 22 370 38 457 115 635 26 61 52 130 58 155 34 140 39 437 12 812
-15 211 -77 423 -209 723 -62 139 -193 397 -279 550 -68 120 -96 178 -193 406
-187 440 -291 603 -407 640 -99 31 -165 86 -366 309 -307 341 -564 565 -941
822 -268 183 -687 424 -808 465 -135 45 -412 83 -761 103 -204 11 -1043 11
-1281 -1z m-2100 -4475 c519 -84 945 -435 1099 -906 72 -222 59 -439 -45 -734
-185 -526 -575 -898 -1074 -1027 -153 -39 -246 -51 -410 -50 -378 1 -710 131
-961 378 -151 148 -244 310 -302 524 -22 85 -25 116 -26 271 0 144 4 191 21
266 96 412 377 812 741 1057 171 115 433 222 582 237 95 10 259 3 375 -16z
m3874 -14 c187 -17 338 -53 491 -118 422 -179 735 -543 835 -974 64 -277 26
-507 -141 -843 -91 -184 -176 -305 -319 -453 -144 -149 -212 -202 -337 -262
-222 -106 -429 -158 -668 -167 -234 -9 -433 27 -627 113 -32 14 -100 41 -151
59 -273 98 -495 340 -610 666 -117 331 -117 766 0 1098 136 386 411 657 807
795 227 79 469 108 720 86z"/>
<path d="M2670 5199 c-19 -10 -41 -23 -48 -29 -7 -7 -16 -9 -19 -6 -10 10 -43
-25 -43 -45 0 -11 10 -20 30 -24 17 -4 30 -10 30 -15 0 -10 63 -50 79 -50 6 0
11 7 11 15 0 9 9 15 23 15 35 0 51 40 31 79 -9 17 -22 31 -30 31 -8 0 -14 9
-14 19 0 28 -10 30 -50 10z"/>
<path d="M6668 5221 c-10 -10 -18 -29 -18 -43 0 -14 -7 -31 -15 -38 -17 -14
-20 -40 -5 -40 6 0 10 -6 10 -13 0 -8 9 -22 21 -33 17 -15 23 -16 40 -6 12 8
19 8 19 2 0 -6 8 -20 18 -30 18 -20 19 -20 40 5 12 14 31 25 42 25 11 0 20 7
20 15 0 8 -7 15 -15 15 -18 0 -35 39 -35 82 0 36 -23 57 -62 58 -16 0 -28 5
-28 10 0 15 -13 11 -32 -9z"/>
</g>
</svg>
